<svg xmlns="http://www.w3.org/2000/svg" xml:space="preserve" width="353.535" height="140.427" viewBox="0 0 353.535 140.427"><defs><filter id="a" width="1.077" height="1.219" x="-.024" y="-.068"><feGaussianBlur in="SourceAlpha"/><feOffset dx="5" dy="5" result="oBlur"/><feFlood flood-color="#2c3e50" flood-opacity="1"/><feComposite in2="oBlur" operator="in"/><feMerge><feMergeNode/><feMergeNode in="SourceGraphic"/></feMerge></filter></defs><path stroke-linecap="round" d="M11.4-34.36c3.2.74 6.31-.74 6.89-3.2.57-2.54-1.64-5.16-4.84-5.9s-6.32.74-6.81 3.2c-.57 2.46 1.56 5.16 4.76 5.9zm3.03 6.97c.58-1.88-9.43-5.49-10-3.61C-2.21-9.27-.49.33 8.45.33c10.33 0 11.64-15.42 12.71-20.58.16-.82-3.61-.5-3.78.32C14.76-6.56 11.64-5.9 11.56-5.9c-3.2 0-3.03-2.14 2.87-21.49zm33.13 7.14c.16-.82-3.53-.5-3.77.32-1.72 6.65-4.59 14.11-12.06 14.11-3.52 0-6.15-2.79-4.92-9.1v.08c2.14-10.01 10.01-14.02 9.76-7.79-.08 1.88 3.04 2.54 3.12.49.57-14.92-18.62-10.09-21.9 5.33q0 .12 0 0C15.58-5.74 24.35.25 29.77.25c13.12 0 17.71-20.34 17.79-20.5zm26.81 0c.17-.82-3.52-.5-3.77.32-.82 3.86-1.97 8.45-5.16 8.45-2.63 0-5.5-10.74-4.27-15.5-.33.25-.74.49-1.15.74 1.23-.41 5.74.82 3.61 10.33-1.31 5.5-5.49 10.99-9.59 10.99-2.13 0-1.97-3.61-.74-10v.08c2.13-10.01 10-14.02 9.76-7.79-.08 1.88 3.03 2.54 3.11.49.58-14.92-18.61-10.09-21.89 5.33q0 .12 0 0C42.31-6.64 48.38-.66 53.71-.66c7.79 0 10.66-11.15 11.89-16.07 1.97-8.85.9-12.87-6.56-10.49-.57.16-1.07.49-1.15.73-1.06 3.94.17 18.62 7.71 18.62 5.82 0 8.45-11.15 8.77-12.38zm11.16-7.22c.57-1.89-9.43-5.49-10.01-3.61-3.69 11.48-3.61 18.04-4.84 26.82-.32 2.62 8.12 5.82 8.53 2.95 1.07-8.61 2.63-14.68 6.32-26.16zm21.32 7.22c.16-.82-3.61-.5-3.78.32C100.53-6.81 96.6-5.9 96.43-5.9c-4.51 0-1.15-3.69 1.56-12.8v.17c1.39-4.02 1.15-12.55-7.13-12.55-4.6 0-12.14 8.2-13.94 10.58-1.81 2.46 2.05 5.25 3.93 2.79 4.27-5.82 5.5-7.96 7.87-7.96 2.55 0 1.48 2.3.91 4.02q0 .12 0 0C87.9-15.83 81.43.33 93.32.33c10.9 0 12.46-15.42 13.53-20.58zm35.83-35.26c.66-1.81-9.35-5.5-10-3.61-9.43 25.5-16.65 59.45-5.83 59.45 10.34 0 11.65-15.42 12.71-20.58.17-.82-3.6-.5-3.77.32-2.62 13.37-5.74 14.03-5.82 14.03-5.9 0 3.77-25.51 12.71-49.61zm-19.11 36.73c.25-1.15-1.64-.33-1.96.82-1.4 5.99-4.68 13.04-8.29 13.04-2.13 0-1.96-3.61-.73-10v.08c2.13-10.01 10-14.02 9.75-7.79-.08 1.88 3.04 2.54 3.12.49.57-14.92-18.61-10.09-21.89 5.33q0 .12 0 0C101.6-6.64 107.67-.66 113-.66c8.2 0 9.51-13.94 10.57-18.12zm33.87-36.73c.66-1.81-9.35-5.5-10-3.61-9.27 24.93-11.32 45.92-12.55 54.86-.33 2.62 8.12 5.82 8.53 2.95 1.23-8.94 4.75-29.11 14.02-54.2zm3.53 32.39c.24-.91-3.12-.33-3.28.49-.99 3.77-1.56 14.92 5.82 14.92 4.59 0 7.54-10.74 7.79-12.54.08-.82-3.69-.5-3.77.32-.58 4.76-2.22 8.61-4.19 8.61-2.62 0-3.69-6.88-2.37-11.8zm-16.9-.09c-.82 1.73 2.05 3.37 2.96 1.64 4.59-9.43 7.46.33 6.23 4.84.08-.08.08-.16.08-.33-.57 1.89-3.44 12.14-5.49 12.14-1.97 0-4.68-2.13-4.1-7.05.08-1.15-1.81-.08-1.97.98-.41 3.69-.33 10.33 5.74 10.33 8.2 0 12.54-7.7 14.51-13.61 0-.24 0-.16 0 0 5.33-19.43-13.12-18.69-17.96-8.94z" paint-order="stroke" style="opacity:1;fill:#9ed1d9;fill-rule:nonzero;stroke:#2c3e50;stroke-width:8.10989;stroke-linecap:butt;stroke-linejoin:miter;stroke-miterlimit:4;stroke-dasharray:none;stroke-dashoffset:0;filter:url(#a)" transform="translate(7.054 122.397)scale(1.92115)"/></svg>